<?xml version="1.0" encoding="UTF-8" standalone="no"?>
<!DOCTYPE svg PUBLIC "-//W3C//DTD SVG 1.1//EN" "http://www.w3.org/Graphics/SVG/1.1/DTD/svg11.dtd">
<svg width="100%" height="100%" viewBox="0 0 5417 4584" version="1.1" xmlns="http://www.w3.org/2000/svg" xmlns:xlink="http://www.w3.org/1999/xlink" xml:space="preserve" style="fill-rule:evenodd;clip-rule:evenodd;stroke-linejoin:round;stroke-miterlimit:1.41421;">
    <g transform="matrix(4.16667,0,0,4.16667,16.7366,-25.7366)">
        <g>
            <g>
                <g transform="matrix(1.71564,0,0,1.71564,-469.166,-330.465)">
                    <path d="M365.562,363.689C362.418,363.689 359.861,361.132 359.861,357.989C359.861,354.845 362.418,352.288 365.562,352.288C368.705,352.288 371.262,354.845 371.262,357.989C371.262,361.132 368.705,363.689 365.562,363.689ZM556.124,262.708C559.267,262.708 561.824,265.265 561.824,268.408C561.824,271.552 559.267,274.109 556.124,274.109C552.98,274.109 550.423,271.552 550.423,268.408C550.423,265.265 552.98,262.708 556.124,262.708ZM541.609,277.409C544.63,282.262 549.998,285.51 556.124,285.51C565.554,285.51 573.225,277.838 573.225,268.408C573.225,258.978 565.554,251.307 556.124,251.307C547.42,251.307 540.23,257.846 539.171,266.267L426.24,287.914L373.189,342.704C370.889,341.552 368.304,340.887 365.562,340.887C356.132,340.887 348.46,348.559 348.46,357.989C348.46,367.419 356.132,375.09 365.562,375.09C374.992,375.09 382.663,367.419 382.663,357.989C382.663,355.463 382.099,353.072 381.111,350.912L431.925,298.433L541.609,277.409Z" style="fill:rgb(5,123,142);fill-rule:nonzero;"/>
                </g>
                <g transform="matrix(1.71564,0,0,1.71564,-469.166,-330.465)">
                    <path d="M983.667,568.91C980.524,568.91 977.966,566.352 977.966,563.209C977.966,560.066 980.524,557.509 983.667,557.509C986.81,557.509 989.367,560.066 989.367,563.209C989.367,566.352 986.81,568.91 983.667,568.91ZM947.02,384.863C947.02,381.72 949.578,379.162 952.721,379.162C955.864,379.162 958.421,381.72 958.421,384.863C958.421,388.006 955.864,390.563 952.721,390.563C949.578,390.563 947.02,388.006 947.02,384.863ZM1022.76,511.357L964.949,396.794C967.959,393.71 969.822,389.502 969.822,384.863C969.822,375.433 962.15,367.761 952.721,367.761C943.291,367.761 935.619,375.433 935.619,384.863C935.619,394.293 943.291,401.965 952.721,401.965C953.399,401.965 954.066,401.914 954.724,401.837L1009.72,510.822L987.796,546.633C986.471,546.302 985.093,546.108 983.667,546.108C974.237,546.108 966.565,553.78 966.565,563.209C966.565,572.639 974.237,580.311 983.667,580.311C993.096,580.311 1000.77,572.639 1000.77,563.209C1000.77,559.352 999.469,555.8 997.306,552.935L1022.76,511.357Z" style="fill:rgb(12,158,218);fill-rule:nonzero;"/>
                </g>
                <g transform="matrix(1.71564,0,0,1.71564,-469.166,-330.465)">
                    <path d="M398.951,398.707C395.807,398.707 393.25,396.15 393.25,393.007C393.25,389.863 395.807,387.306 398.951,387.306C402.094,387.306 404.651,389.863 404.651,393.007C404.651,396.15 402.094,398.707 398.951,398.707ZM560.195,310.755C563.339,310.755 565.896,313.313 565.896,316.456C565.896,319.599 563.339,322.157 560.195,322.157C557.052,322.157 554.495,319.599 554.495,316.456C554.495,313.313 557.052,310.755 560.195,310.755ZM545.533,325.213C548.523,330.201 553.968,333.558 560.195,333.558C569.626,333.558 577.297,325.886 577.297,316.456C577.297,307.026 569.626,299.354 560.195,299.354C551.589,299.354 544.468,305.75 543.286,314.035L446.51,334.043L406.034,377.46C403.873,376.471 401.479,375.905 398.951,375.905C389.521,375.905 381.849,383.577 381.849,393.007C381.849,402.437 389.521,410.108 398.951,410.108C408.381,410.108 416.052,402.437 416.052,393.007C416.052,390.265 415.388,387.681 414.236,385.382L452.373,344.473L545.533,325.213Z" style="fill:rgb(98,188,71);fill-rule:nonzero;"/>
                </g>
                <g transform="matrix(1.71564,0,0,1.71564,-469.166,-330.465)">
                    <path d="M328.915,550.994C325.772,550.994 323.214,548.436 323.214,545.293C323.214,542.15 325.772,539.593 328.915,539.593C332.058,539.593 334.616,542.15 334.616,545.293C334.616,548.436 332.058,550.994 328.915,550.994ZM376.963,277.366C380.106,277.366 382.663,279.924 382.663,283.067C382.663,286.21 380.106,288.767 376.963,288.767C373.819,288.767 371.262,286.21 371.262,283.067C371.262,279.924 373.819,277.366 376.963,277.366ZM408.85,453.888L320.248,354.313L369.628,298.493C371.855,299.556 374.335,300.169 376.963,300.169C386.393,300.169 394.064,292.497 394.064,283.067C394.064,273.637 386.393,265.965 376.963,265.965C367.533,265.965 359.861,273.637 359.861,283.067C359.861,285.702 360.478,288.189 361.546,290.421L305.007,354.335L393.937,454.28L334.147,529.017C332.496,528.486 330.74,528.192 328.915,528.192C319.485,528.192 311.813,535.863 311.813,545.293C311.813,554.723 319.485,562.395 328.915,562.395C338.345,562.395 346.017,554.723 346.017,545.293C346.017,541.84 344.98,538.628 343.212,535.936L408.85,453.888Z" style="fill:rgb(237,18,101);fill-rule:nonzero;"/>
                </g>
                <g transform="matrix(1.71564,0,0,1.71564,-469.166,-330.465)">
                    <path d="M382.663,569.724C379.52,569.724 376.963,567.167 376.963,564.024C376.963,560.881 379.52,558.323 382.663,558.323C385.807,558.323 388.364,560.881 388.364,564.024C388.364,567.167 385.807,569.724 382.663,569.724ZM434.783,432.096C431.639,432.096 429.082,429.539 429.082,426.396C429.082,423.252 431.639,420.695 434.783,420.695C437.926,420.695 440.483,423.252 440.483,426.396C440.483,429.539 437.926,432.096 434.783,432.096ZM474.958,462.025L449.636,434.839C451.06,432.345 451.885,429.467 451.885,426.396C451.885,416.966 444.213,409.294 434.783,409.294C425.353,409.294 417.681,416.966 417.681,426.396C417.681,435.826 425.353,443.497 434.783,443.497C436.982,443.497 439.078,443.065 441.011,442.306L459.757,462.431L388.292,547.894C386.526,547.275 384.637,546.922 382.663,546.922C373.233,546.922 365.562,554.594 365.562,564.024C365.562,573.453 373.233,581.125 382.663,581.125C392.093,581.125 399.765,573.453 399.765,564.024C399.765,560.724 398.81,557.65 397.184,555.034L474.958,462.025Z" style="fill:rgb(243,112,35);fill-rule:nonzero;"/>
                </g>
                <g transform="matrix(1.71564,0,0,1.71564,-469.166,-330.465)">
                    <path d="M425.01,548.551C425.01,545.408 427.568,542.85 430.711,542.85C433.854,542.85 436.412,545.408 436.412,548.551C436.412,551.694 433.854,554.251 430.711,554.251C427.568,554.251 425.01,551.694 425.01,548.551ZM734.47,581.125C737.613,581.125 740.171,583.683 740.171,586.826C740.171,589.969 737.613,592.527 734.47,592.527C731.327,592.527 728.77,589.969 728.77,586.826C728.77,583.683 731.327,581.125 734.47,581.125ZM722.03,598.525C725.151,601.842 729.567,603.928 734.47,603.928C743.9,603.928 751.572,596.256 751.572,586.826C751.572,577.396 743.9,569.724 734.47,569.724C725.041,569.724 717.368,577.396 717.368,586.826C717.368,587.249 717.402,587.664 717.432,588.08L551.162,652.681L447.032,553.66C447.538,552.046 447.813,550.33 447.813,548.551C447.813,539.121 440.141,531.449 430.711,531.449C421.281,531.449 413.609,539.121 413.609,548.551C413.609,557.98 421.281,565.653 430.711,565.653C434.185,565.653 437.417,564.605 440.118,562.818L548.548,665.929L722.03,598.525Z" style="fill:rgb(56,186,149);fill-rule:nonzero;"/>
                </g>
                <g transform="matrix(1.71564,0,0,1.71564,-469.166,-330.465)">
                    <path d="M833.823,796.119C830.68,796.119 828.122,793.561 828.122,790.418C828.122,787.275 830.68,784.717 833.823,784.717C836.966,784.717 839.524,787.275 839.524,790.418C839.524,793.561 836.966,796.119 833.823,796.119ZM785.775,748.071C785.775,744.928 788.333,742.37 791.476,742.37C794.619,742.37 797.177,744.928 797.177,748.071C797.177,751.214 794.619,753.771 791.476,753.771C788.333,753.771 785.775,751.214 785.775,748.071ZM833.823,773.316C830.761,773.316 827.891,774.136 825.402,775.552L806.444,756.324C807.8,753.875 808.578,751.063 808.578,748.071C808.578,738.641 800.906,730.969 791.476,730.969C782.046,730.969 774.374,738.641 774.374,748.071C774.374,757.501 782.046,765.173 791.476,765.173C793.752,765.173 795.921,764.717 797.909,763.906L817.911,784.194C817.153,786.125 816.721,788.22 816.721,790.418C816.721,799.848 824.393,807.52 833.823,807.52C843.253,807.52 850.925,799.848 850.925,790.418C850.925,780.988 843.253,773.316 833.823,773.316Z" style="fill:rgb(240,79,63);fill-rule:nonzero;"/>
                </g>
                <g transform="matrix(1.71564,0,0,1.71564,-469.166,-330.465)">
                    <path d="M652.219,352.288C649.076,352.288 646.518,349.731 646.518,346.588C646.518,343.444 649.076,340.887 652.219,340.887C655.362,340.887 657.92,343.444 657.92,346.588C657.92,349.731 655.362,352.288 652.219,352.288ZM820.793,347.402C823.936,347.402 826.494,349.959 826.494,353.103C826.494,356.246 823.936,358.803 820.793,358.803C818.308,358.803 816.195,357.202 815.416,354.979L815.288,354.556C815.165,354.091 815.093,353.606 815.093,353.103C815.093,349.959 817.65,347.402 820.793,347.402ZM652.219,329.486C642.789,329.486 635.117,337.158 635.117,346.588C635.117,356.018 642.789,363.689 652.219,363.689C655.148,363.689 657.907,362.947 660.32,361.644L698.903,395.31L806.516,362.493C809.578,367.132 814.831,370.204 820.793,370.204C830.223,370.204 837.895,362.533 837.895,353.103C837.895,343.672 830.223,336.001 820.793,336.001C811.936,336.001 804.631,342.771 803.777,351.408L701.631,382.559L667.988,353.203C668.845,351.167 669.321,348.932 669.321,346.588C669.321,337.158 661.649,329.486 652.219,329.486Z" style="fill:rgb(240,79,63);fill-rule:nonzero;"/>
                </g>
                <g transform="matrix(1.71564,0,0,1.71564,-469.166,-330.465)">
                    <path d="M950.278,632.431C947.135,632.431 944.577,629.873 944.577,626.73C944.577,623.587 947.135,621.03 950.278,621.03C953.421,621.03 955.978,623.587 955.978,626.73C955.978,629.873 953.421,632.431 950.278,632.431ZM669.321,644.646C669.321,641.503 671.878,638.946 675.021,638.946C678.164,638.946 680.722,641.503 680.722,644.646C680.722,647.789 678.164,650.347 675.021,650.347C671.878,650.347 669.321,647.789 669.321,644.646ZM950.278,609.628C940.848,609.628 933.176,617.3 933.176,626.73C933.176,628.86 933.585,630.891 934.299,632.773L845.449,707.47L750.525,712.917L689.998,652.886C691.349,650.44 692.123,647.633 692.123,644.646C692.123,635.217 684.451,627.544 675.021,627.544C665.591,627.544 657.92,635.217 657.92,644.646C657.92,654.076 665.591,661.748 675.021,661.748C677.3,661.748 679.473,661.291 681.463,660.478L746.104,724.59L849.885,718.636L941.662,641.479C944.196,642.965 947.134,643.832 950.278,643.832C959.707,643.832 967.379,636.16 967.379,626.73C967.379,617.3 959.707,609.628 950.278,609.628Z" style="fill:rgb(21,125,194);fill-rule:nonzero;"/>
                </g>
                <g transform="matrix(1.71564,0,0,1.71564,-469.166,-330.465)">
                    <path d="M941.32,575.425C944.463,575.425 947.02,577.983 947.02,581.125C947.02,584.268 944.463,586.826 941.32,586.826C938.177,586.826 935.619,584.268 935.619,581.125C935.619,577.983 938.177,575.425 941.32,575.425ZM785.775,574.611C782.632,574.611 780.075,572.053 780.075,568.91C780.075,565.767 782.632,563.209 785.775,563.209C788.918,563.209 791.476,565.767 791.476,568.91C791.476,572.053 788.918,574.611 785.775,574.611ZM941.32,598.227C950.749,598.227 958.421,590.555 958.421,581.125C958.421,571.696 950.749,564.024 941.32,564.024C935.692,564.024 930.706,566.768 927.588,570.975L838.941,545.043L798.459,557.48C795.327,554.007 790.809,551.808 785.775,551.808C776.346,551.808 768.674,559.48 768.674,568.91C768.674,578.34 776.346,586.012 785.775,586.012C795.205,586.012 802.877,578.34 802.877,568.91C802.877,568.624 802.848,568.345 802.834,568.063L839.02,556.945L924.256,581.88C924.655,590.959 932.145,598.227 941.32,598.227Z" style="fill:rgb(237,13,110);fill-rule:nonzero;"/>
                </g>
                <g transform="matrix(1.71564,0,0,1.71564,-469.166,-330.465)">
                    <path d="M800.434,822.178C797.291,822.178 794.733,819.621 794.733,816.478C794.733,813.335 797.291,810.777 800.434,810.777C803.577,810.777 806.135,813.335 806.135,816.478C806.135,819.621 803.577,822.178 800.434,822.178ZM635.932,661.748C632.788,661.748 630.231,659.19 630.231,656.047C630.231,652.904 632.788,650.347 635.932,650.347C639.075,650.347 641.632,652.904 641.632,656.047C641.632,659.19 639.075,661.748 635.932,661.748ZM800.434,799.376C797.78,799.376 795.275,800.001 793.031,801.085L651.373,663.349C652.426,661.131 653.033,658.662 653.033,656.047C653.033,646.618 645.362,638.946 635.932,638.946C626.502,638.946 618.83,646.618 618.83,656.047C618.83,665.477 626.502,673.149 635.932,673.149C638.587,673.149 641.093,672.523 643.338,671.438L784.994,809.173C783.94,811.392 783.332,813.862 783.332,816.478C783.332,825.907 791.004,833.58 800.434,833.58C809.864,833.58 817.536,825.907 817.536,816.478C817.536,807.048 809.864,799.376 800.434,799.376Z" style="fill:rgb(237,219,15);fill-rule:nonzero;"/>
                </g>
                <g transform="matrix(1.71564,0,0,1.71564,-469.166,-330.465)">
                    <path d="M479.573,401.15C482.716,401.15 485.274,403.707 485.274,406.851C485.274,409.994 482.716,412.551 479.573,412.551C476.43,412.551 473.872,409.994 473.872,406.851C473.872,403.707 476.43,401.15 479.573,401.15ZM667.692,524.12C670.835,524.12 673.393,526.677 673.393,529.82C673.393,532.964 670.835,535.521 667.692,535.521C664.549,535.521 661.991,532.964 661.991,529.82C661.991,526.677 664.549,524.12 667.692,524.12ZM479.573,423.953C489.003,423.953 496.675,416.281 496.675,406.851C496.675,406.486 496.643,406.13 496.62,405.771L537.641,389.223L652.915,521.252C651.446,523.775 650.59,526.697 650.59,529.82C650.59,539.25 658.262,546.922 667.692,546.922C677.122,546.922 684.794,539.25 684.794,529.82C684.794,520.39 677.122,512.719 667.692,512.719C665.543,512.719 663.493,513.134 661.597,513.861L540.896,375.616L492.135,395.286C489.008,391.892 484.542,389.749 479.573,389.749C470.143,389.749 462.471,397.421 462.471,406.851C462.471,416.281 470.143,423.953 479.573,423.953Z" style="fill:rgb(18,170,181);fill-rule:nonzero;"/>
                </g>
                <g transform="matrix(1.71564,0,0,1.71564,-469.166,-330.465)">
                    <path d="M596.028,542.036C599.171,542.036 601.728,544.594 601.728,547.736C601.728,550.879 599.171,553.437 596.028,553.437C592.884,553.437 590.327,550.879 590.327,547.736C590.327,544.594 592.884,542.036 596.028,542.036ZM506.447,463.042C503.304,463.042 500.747,460.485 500.747,457.342C500.747,454.198 503.304,451.641 506.447,451.641C509.591,451.641 512.148,454.198 512.148,457.342C512.148,460.485 509.591,463.042 506.447,463.042ZM596.028,564.838C605.458,564.838 613.129,557.166 613.129,547.736C613.129,538.307 605.458,530.635 596.028,530.635C593.001,530.635 590.16,531.433 587.691,532.818L521.948,464.781L521.711,465.009C522.877,462.699 523.549,460.1 523.549,457.342C523.549,447.912 515.877,440.24 506.447,440.24C497.017,440.24 489.345,447.912 489.345,457.342C489.345,466.772 497.017,474.443 506.447,474.443C509.082,474.443 511.57,473.827 513.801,472.758L580.149,541.421C579.368,543.377 578.926,545.505 578.926,547.736C578.926,557.166 586.598,564.838 596.028,564.838Z" style="fill:rgb(214,223,39);fill-rule:nonzero;"/>
                </g>
                <g transform="matrix(1.71564,0,0,1.71564,-469.166,-330.465)">
                    <path d="M482.831,515.976C485.974,515.976 488.531,518.533 488.531,521.677C488.531,524.82 485.974,527.377 482.831,527.377C479.687,527.377 477.13,524.82 477.13,521.677C477.13,518.533 479.687,515.976 482.831,515.976ZM773.56,519.234C776.703,519.234 779.26,521.791 779.26,524.934C779.26,528.078 776.703,530.635 773.56,530.635C770.417,530.635 767.859,528.078 767.859,524.934C767.859,521.791 770.417,519.234 773.56,519.234ZM465.729,521.677C465.729,531.107 473.4,538.778 482.831,538.778C485.879,538.778 488.738,537.967 491.219,536.563L562.783,610.594L760.08,535.421C763.212,539.438 768.083,542.036 773.56,542.036C782.99,542.036 790.662,534.364 790.662,524.934C790.662,515.504 782.99,507.832 773.56,507.832C764.245,507.832 756.659,515.321 756.475,524.593L565.752,597.262L498.732,527.93C499.497,525.991 499.932,523.885 499.932,521.677C499.932,512.247 492.261,504.575 482.831,504.575C473.4,504.575 465.729,512.247 465.729,521.677Z" style="fill:rgb(46,53,144);fill-rule:nonzero;"/>
                </g>
                <g transform="matrix(1.71564,0,0,1.71564,-469.166,-330.465)">
                    <path d="M309.37,494.803C309.37,491.659 311.927,489.102 315.071,489.102C318.214,489.102 320.771,491.659 320.771,494.803C320.771,497.946 318.214,500.503 315.071,500.503C311.927,500.503 309.37,497.946 309.37,494.803ZM294.712,390.563C297.855,390.563 300.412,393.121 300.412,396.264C300.412,399.407 297.855,401.965 294.712,401.965C291.568,401.965 289.011,399.407 289.011,396.264C289.011,393.121 291.568,390.563 294.712,390.563ZM332.173,494.803C332.173,485.372 324.501,477.701 315.071,477.701C312.951,477.701 310.93,478.106 309.055,478.814L289.383,456.43L296.667,413.245C305.178,412.271 311.813,405.032 311.813,396.264C311.813,386.834 304.142,379.162 294.712,379.162C285.282,379.162 277.61,386.834 277.61,396.264C277.61,402.318 280.78,407.633 285.539,410.673L277.238,459.882L300.336,486.164C298.842,488.703 297.969,491.649 297.969,494.803C297.969,504.233 305.641,511.904 315.071,511.904C324.501,511.904 332.173,504.233 332.173,494.803Z" style="fill:rgb(18,170,181);fill-rule:nonzero;"/>
                </g>
                <g transform="matrix(1.71564,0,0,1.71564,-469.166,-330.465)">
                    <path d="M590.327,353.917C590.327,350.774 592.884,348.216 596.028,348.216C599.171,348.216 601.728,350.774 601.728,353.917C601.728,357.06 599.171,359.617 596.028,359.617C592.884,359.617 590.327,357.06 590.327,353.917ZM714.111,427.21C717.254,427.21 719.812,429.767 719.812,432.911C719.812,436.054 717.254,438.611 714.111,438.611C710.968,438.611 708.41,436.054 708.41,432.911C708.41,429.767 710.968,427.21 714.111,427.21ZM596.028,336.815C586.598,336.815 578.926,344.487 578.926,353.917C578.926,363.347 586.598,371.019 596.028,371.019C597.027,371.019 598.002,370.915 598.955,370.749L665.422,446.289L699.524,441.792C702.531,446.711 707.936,450.012 714.111,450.012C723.541,450.012 731.213,442.341 731.213,432.911C731.213,423.481 723.541,415.809 714.111,415.809C705.467,415.809 698.318,422.262 697.184,430.601L669.963,434.191L609.055,364.969C611.591,361.986 613.129,358.13 613.129,353.917C613.129,344.487 605.458,336.815 596.028,336.815Z" style="fill:rgb(36,179,232);fill-rule:nonzero;"/>
                </g>
                <g transform="matrix(1.71564,0,0,1.71564,-469.166,-330.465)">
                    <path d="M735.285,212.217C738.427,212.217 740.985,214.774 740.985,217.917C740.985,221.061 738.427,223.618 735.285,223.618C732.142,223.618 729.584,221.061 729.584,217.917C729.584,214.774 732.142,212.217 735.285,212.217ZM593.585,257.007C593.585,253.864 596.142,251.307 599.285,251.307C602.428,251.307 604.986,253.864 604.986,257.007C604.986,260.15 602.428,262.708 599.285,262.708C596.142,262.708 593.585,260.15 593.585,257.007ZM735.285,235.019C736.294,235.019 737.277,234.914 738.238,234.746L755.242,273.109L629.858,312.409L611.35,269.114C614.459,266.016 616.387,261.733 616.387,257.007C616.387,247.577 608.715,239.905 599.285,239.905C589.855,239.905 582.183,247.577 582.183,257.007C582.183,266.437 589.855,274.109 599.285,274.109C599.88,274.109 600.468,274.078 601.047,274.018L623.428,326.372L770.842,280.168L748.202,229.091C750.801,226.09 752.386,222.189 752.386,217.917C752.386,208.487 744.714,200.816 735.285,200.816C725.855,200.816 718.183,208.487 718.183,217.917C718.183,227.348 725.855,235.019 735.285,235.019Z" style="fill:rgb(10,119,175);fill-rule:nonzero;"/>
                </g>
                <g transform="matrix(1.71564,0,0,1.71564,-469.166,-330.465)">
                    <path d="M803.691,231.762C806.834,231.762 809.392,234.319 809.392,237.462C809.392,240.606 806.834,243.163 803.691,243.163C800.548,243.163 797.991,240.606 797.991,237.462C797.991,234.319 800.548,231.762 803.691,231.762ZM714.111,340.073C710.968,340.073 708.41,337.515 708.41,334.372C708.41,331.229 710.968,328.672 714.111,328.672C717.254,328.672 719.812,331.229 719.812,334.372C719.812,337.515 717.254,340.073 714.111,340.073ZM803.691,254.564C804.039,254.564 804.378,254.532 804.72,254.512L821.427,298.849L728.786,325.637C725.798,320.636 720.347,317.27 714.111,317.27C704.681,317.27 697.009,324.942 697.009,334.372C697.009,343.802 704.681,351.474 714.111,351.474C722.693,351.474 729.798,345.113 731.01,336.862L836.447,306.374L815.224,250.053C818.637,246.925 820.793,242.446 820.793,237.462C820.793,228.032 813.121,220.361 803.691,220.361C794.262,220.361 786.59,228.032 786.59,237.462C786.59,246.892 794.262,254.564 803.691,254.564Z" style="fill:rgb(245,130,31);fill-rule:nonzero;"/>
                </g>
                <g transform="matrix(1.71564,0,0,1.71564,-469.166,-330.465)">
                    <path d="M853.368,261.893C856.511,261.893 859.068,264.451 859.068,267.594C859.068,270.737 856.511,273.294 853.368,273.294C850.225,273.294 847.667,270.737 847.667,267.594C847.667,264.451 850.225,261.893 853.368,261.893ZM905.487,445.126C902.344,445.126 899.787,442.569 899.787,439.426C899.787,436.282 902.344,433.725 905.487,433.725C908.63,433.725 911.188,436.282 911.188,439.426C911.188,442.569 908.63,445.126 905.487,445.126ZM853.368,284.696C856.127,284.696 858.726,284.024 861.036,282.858L923.579,341.926L903.446,422.457C894.977,423.471 888.386,430.687 888.386,439.426C888.386,448.856 896.058,456.527 905.487,456.527C914.917,456.527 922.589,448.856 922.589,439.426C922.589,433.335 919.379,427.993 914.572,424.962L936.258,338.219L868.935,274.636C869.912,272.485 870.47,270.106 870.47,267.594C870.47,258.164 862.797,250.492 853.368,250.492C843.938,250.492 836.266,258.164 836.266,267.594C836.266,277.024 843.938,284.696 853.368,284.696Z" style="fill:rgb(141,199,65);fill-rule:nonzero;"/>
                </g>
                <g transform="matrix(1.71564,0,0,1.71564,-469.166,-330.465)">
                    <path d="M950.278,511.904C947.135,511.904 944.577,509.347 944.577,506.204C944.577,503.06 947.135,500.503 950.278,500.503C953.421,500.503 955.978,503.06 955.978,506.204C955.978,509.347 953.421,511.904 950.278,511.904ZM869.655,326.228C872.798,326.228 875.356,328.786 875.356,331.929C875.356,335.072 872.798,337.63 869.655,337.63C866.512,337.63 863.955,335.072 863.955,331.929C863.955,328.786 866.512,326.228 869.655,326.228ZM967.379,506.204C967.379,496.774 959.707,489.102 950.278,489.102C945.425,489.102 941.049,491.143 937.933,494.4L835.996,451.676L869.724,349.027C879.122,348.99 886.757,341.336 886.757,331.929C886.757,322.499 879.085,314.827 869.655,314.827C860.226,314.827 852.554,322.499 852.554,331.929C852.554,337.313 855.061,342.117 858.962,345.255L821.878,458.121L933.247,504.798C933.209,505.263 933.176,505.729 933.176,506.204C933.176,515.634 940.848,523.305 950.278,523.305C959.707,523.305 967.379,515.634 967.379,506.204Z" style="fill:rgb(145,41,142);fill-rule:nonzero;"/>
                </g>
                <g transform="matrix(1.71564,0,0,1.71564,-469.166,-330.465)">
                    <path d="M895.715,521.677C898.858,521.677 901.416,524.234 901.416,527.377C901.416,530.521 898.858,533.078 895.715,533.078C892.572,533.078 890.014,530.521 890.014,527.377C890.014,524.234 892.572,521.677 895.715,521.677ZM779.26,406.036C782.403,406.036 784.961,408.594 784.961,411.737C784.961,414.88 782.403,417.438 779.26,417.438C776.117,417.438 773.56,414.88 773.56,411.737C773.56,408.594 776.117,406.036 779.26,406.036ZM895.715,544.479C905.145,544.479 912.817,536.807 912.817,527.377C912.817,517.947 905.145,510.276 895.715,510.276C890.57,510.276 885.96,512.57 882.822,516.176L764.014,466.167L778.228,428.786C778.571,428.807 778.912,428.839 779.26,428.839C788.69,428.839 796.362,421.167 796.362,411.737C796.362,402.307 788.69,394.635 779.26,394.635C769.831,394.635 762.159,402.307 762.159,411.737C762.159,416.72 764.314,421.198 767.726,424.327L749.445,472.404L878.643,526.787C878.636,526.985 878.613,527.178 878.613,527.377C878.613,536.807 886.285,544.479 895.715,544.479Z" style="fill:rgb(202,219,44);fill-rule:nonzero;"/>
                </g>
                <g transform="matrix(1.71564,0,0,1.71564,-469.166,-330.465)">
                    <path d="M425.01,250.492C428.154,250.492 430.711,253.049 430.711,256.193C430.711,259.336 428.154,261.893 425.01,261.893C421.867,261.893 419.31,259.336 419.31,256.193C419.31,253.049 421.867,250.492 425.01,250.492ZM688.051,257.822C688.051,260.965 685.494,263.522 682.351,263.522C679.208,263.522 676.65,260.965 676.65,257.822C676.65,254.678 679.208,252.121 682.351,252.121C685.494,252.121 688.051,254.678 688.051,257.822ZM425.01,273.294C433.727,273.294 440.927,266.735 441.969,258.296L645.095,222.904L669.358,246.73C666.802,249.72 665.249,253.59 665.249,257.822C665.249,267.252 672.921,274.923 682.351,274.923C691.78,274.923 699.452,267.252 699.452,257.822C699.452,248.391 691.78,240.72 682.351,240.72C681.459,240.72 680.59,240.809 679.735,240.941L648.906,210.667L439.501,247.153C436.476,242.321 431.12,239.091 425.01,239.091C415.58,239.091 407.909,246.763 407.909,256.193C407.909,265.623 415.58,273.294 425.01,273.294Z" style="fill:rgb(111,97,170);fill-rule:nonzero;"/>
                </g>
                <g transform="matrix(1.71564,0,0,1.71564,-469.166,-330.465)">
                    <path d="M850.11,658.49C850.11,661.633 847.553,664.191 844.41,664.191C841.267,664.191 838.709,661.633 838.709,658.49C838.709,655.347 841.267,652.79 844.41,652.79C847.553,652.79 850.11,655.347 850.11,658.49ZM749.943,678.035C746.8,678.035 744.243,675.478 744.243,672.335C744.243,669.192 746.8,666.634 749.943,666.634C753.086,666.634 755.644,669.192 755.644,672.335C755.644,675.478 753.086,678.035 749.943,678.035ZM827.851,654.291L763.635,662.132C760.514,657.954 755.547,655.233 749.943,655.233C740.513,655.233 732.841,662.905 732.841,672.335C732.841,681.764 740.513,689.436 749.943,689.436C759.078,689.436 766.542,682.23 767.001,673.207L828.899,665.649C831.615,671.509 837.538,675.592 844.41,675.592C853.839,675.592 861.512,667.92 861.512,658.49C861.512,649.061 853.839,641.389 844.41,641.389C836.431,641.389 829.731,646.889 827.851,654.291Z" style="fill:rgb(202,219,44);fill-rule:nonzero;"/>
                </g>
                <g transform="matrix(1.71564,0,0,1.71564,-469.166,-330.465)">
                    <path d="M893.272,641.389C893.272,644.532 890.714,647.089 887.571,647.089C884.428,647.089 881.871,644.532 881.871,641.389C881.871,638.246 884.428,635.688 887.571,635.688C890.714,635.688 893.272,638.246 893.272,641.389ZM718.183,639.76C715.04,639.76 712.482,637.202 712.482,634.059C712.482,630.916 715.04,628.359 718.183,628.359C721.326,628.359 723.883,630.916 723.883,634.059C723.883,637.202 721.326,639.76 718.183,639.76ZM887.571,658.49C897.001,658.49 904.673,650.818 904.673,641.389C904.673,631.959 897.001,624.287 887.571,624.287C884.261,624.287 881.178,625.248 878.557,626.883L843.449,597.751L731.222,623.02C728.083,619.318 723.406,616.958 718.183,616.958C708.753,616.958 701.081,624.63 701.081,634.059C701.081,643.489 708.753,651.161 718.183,651.161C727.612,651.161 735.285,643.489 735.285,634.059C735.285,633.97 735.273,633.884 735.271,633.796L840.484,610.105L871.432,635.785C870.819,637.544 870.47,639.424 870.47,641.389C870.47,650.818 878.142,658.49 887.571,658.49Z" style="fill:rgb(244,122,91);fill-rule:nonzero;"/>
                </g>
            </g>
        </g>
    </g>
</svg>
